<svg width="22" height="22" viewBox="0 0 22 22" fill="none" xmlns="http://www.w3.org/2000/svg">
<g opacity="0.6">
<path d="M5.50026 18.3332C5.24054 18.3332 5.02268 18.2452 4.84668 18.0692C4.67129 17.8938 4.58359 17.6763 4.58359 17.4166C4.58359 17.1568 4.67129 16.9393 4.84668 16.7639C5.02268 16.5879 5.24054 16.4999 5.50026 16.4999H16.5003C16.76 16.4999 16.9775 16.5879 17.1529 16.7639C17.3289 16.9393 17.4169 17.1568 17.4169 17.4166C17.4169 17.6763 17.3289 17.8938 17.1529 18.0692C16.9775 18.2452 16.76 18.3332 16.5003 18.3332H5.50026ZM8.75443 14.277C8.63221 14.277 8.51762 14.2577 8.41068 14.2192C8.30373 14.1813 8.20443 14.1166 8.11276 14.0249L4.21693 10.1291C4.04887 9.96101 3.96484 9.73949 3.96484 9.46449C3.96484 9.18949 4.04887 8.96796 4.21693 8.7999C4.38498 8.63185 4.59887 8.54782 4.85859 8.54782C5.11832 8.54782 5.33221 8.63185 5.50026 8.7999L8.75443 12.0541L16.5003 4.30824C16.6683 4.14018 16.8862 4.05615 17.1538 4.05615C17.4209 4.05615 17.6385 4.14018 17.8065 4.30824C17.9746 4.47629 18.0586 4.69385 18.0586 4.9609C18.0586 5.22857 17.9746 5.44643 17.8065 5.61449L9.39609 14.0249C9.30443 14.1166 9.20512 14.1813 9.09818 14.2192C8.99123 14.2577 8.87665 14.277 8.75443 14.277Z" fill="#999999"/>
</g>
</svg>
